<svg width="88" height="87" viewBox="0 0 88 87" fill="none" xmlns="http://www.w3.org/2000/svg">
<g filter="url(#filter0_d_49_2)">
<path d="M49.7604 49.697H4C4 38.2249 13.2315 28.9429 24.6411 28.9429H33.0568V20.75C33.0568 9.28198 42.2923 3.29715e-06 53.697 3.29715e-06V45.7339C53.6959 46.7837 53.281 47.7903 52.5431 48.533C51.8052 49.2756 50.8045 49.6939 49.7604 49.696V49.697Z" fill="#1B1B1E"/>
</g>
<path d="M71.9387 25.4546H58.5454C58.5454 39.4449 61.2473 50.7643 64.5868 50.7643H67.0499V60.7557C67.0499 74.7411 69.7529 86.0606 73.0909 86.0606V30.2875C73.0906 29.0073 72.9691 27.7798 72.7532 26.8741C72.5372 25.9684 72.2443 25.4583 71.9387 25.4558V25.4546Z" fill="#0BA3DC"/>
<g filter="url(#filter1_d_49_2)">
<path d="M58.3295 16.9697H84C84 30.96 78.8214 42.2795 72.4208 42.2795H67.6998V52.2708C67.6998 66.2563 62.519 77.5758 56.1212 77.5758V21.8027C56.1218 20.5225 56.3546 19.295 56.7685 18.3892C57.1825 17.4835 57.7438 16.9723 58.3295 16.9697Z" fill="#0BA3DC"/>
</g>
<defs>
<filter id="filter0_d_49_2" x="0" y="0" width="57.697" height="57.697" filterUnits="userSpaceOnUse" color-interpolation-filters="sRGB">
<feFlood flood-opacity="0" result="BackgroundImageFix"/>
<feColorMatrix in="SourceAlpha" type="matrix" values="0 0 0 0 0 0 0 0 0 0 0 0 0 0 0 0 0 0 127 0" result="hardAlpha"/>
<feOffset dy="4"/>
<feGaussianBlur stdDeviation="2"/>
<feComposite in2="hardAlpha" operator="out"/>
<feColorMatrix type="matrix" values="0 0 0 0 0 0 0 0 0 0 0 0 0 0 0 0 0 0 0.25 0"/>
<feBlend mode="normal" in2="BackgroundImageFix" result="effect1_dropShadow_49_2"/>
<feBlend mode="normal" in="SourceGraphic" in2="effect1_dropShadow_49_2" result="shape"/>
</filter>
<filter id="filter1_d_49_2" x="52.1212" y="16.9697" width="35.8788" height="68.6061" filterUnits="userSpaceOnUse" color-interpolation-filters="sRGB">
<feFlood flood-opacity="0" result="BackgroundImageFix"/>
<feColorMatrix in="SourceAlpha" type="matrix" values="0 0 0 0 0 0 0 0 0 0 0 0 0 0 0 0 0 0 127 0" result="hardAlpha"/>
<feOffset dy="4"/>
<feGaussianBlur stdDeviation="2"/>
<feComposite in2="hardAlpha" operator="out"/>
<feColorMatrix type="matrix" values="0 0 0 0 0 0 0 0 0 0 0 0 0 0 0 0 0 0 0.25 0"/>
<feBlend mode="normal" in2="BackgroundImageFix" result="effect1_dropShadow_49_2"/>
<feBlend mode="normal" in="SourceGraphic" in2="effect1_dropShadow_49_2" result="shape"/>
</filter>
</defs>
</svg>
